HIERARCHY
ROOT root
{
	OFFSET 0.000000 0.000000 0.000000
	CHANNELS 6 Xposition Yposition Zposition Zrotation Yrotation Xrotation
	JOINT lhip
	{
		OFFSET 0.058581 -0.082280 -0.017664
		CHANNELS 3 Zrotation Yrotation Xrotation
		JOINT lknee
		{
			OFFSET 0.043451 -0.386469 0.008037
			CHANNELS 3 Zrotation Yrotation Xrotation
			JOINT lankle
			{
				OFFSET -0.014790 -0.426874 -0.037428
				CHANNELS 3 Zrotation Yrotation Xrotation
				JOINT ltoe
				{
					OFFSET 0.041054 -0.060286 0.122042
					CHANNELS 3 Zrotation Yrotation Xrotation
					End Site
					{
						OFFSET 0.000000 0.000000 0.000000
					}
				}
			}
		}
	}
	JOINT rhip
	{
		OFFSET -0.060310 -0.090513 -0.013543
		CHANNELS 3 Zrotation Yrotation Xrotation
		JOINT rknee
		{
			OFFSET -0.043257 -0.383688 -0.004843
			CHANNELS 3 Zrotation Yrotation Xrotation
			JOINT rankle
			{
				OFFSET 0.019056 -0.420046 -0.034562
				CHANNELS 3 Zrotation Yrotation Xrotation
				JOINT rtoe
				{
					OFFSET -0.034840 -0.062106 0.130323
					CHANNELS 3 Zrotation Yrotation Xrotation
					End Site
					{
						OFFSET 0.000000 0.000000 0.000000
					}
				}
			}
		}
	}
	JOINT lowerback
	{
		OFFSET 0.004439 0.124404 -0.038385
		CHANNELS 3 Zrotation Yrotation Xrotation
		JOINT upperback
		{
			OFFSET 0.004488 0.137956 0.026820
			CHANNELS 3 Zrotation Yrotation Xrotation
			JOINT chest
			{
				OFFSET -0.002265 0.056032 0.002855
				CHANNELS 3 Zrotation Yrotation Xrotation
				JOINT lowerneck
				{
					OFFSET -0.013390 0.211636 -0.033468
					CHANNELS 3 Zrotation Yrotation Xrotation
					JOINT upperneck
					{
						OFFSET 0.010113 0.088937 0.050410
						CHANNELS 3 Zrotation Yrotation Xrotation
						End Site
						{
							OFFSET 0.000000 0.000000 0.000000
						}
					}
				}
				JOINT lclavicle
				{
					OFFSET 0.071702 0.114000 -0.018898
					CHANNELS 3 Zrotation Yrotation Xrotation
					JOINT lshoulder
					{
						OFFSET 0.122921 0.045205 -0.019046
						CHANNELS 3 Zrotation Yrotation Xrotation
						JOINT lelbow
						{
							OFFSET 0.255332 -0.015649 -0.022946
							CHANNELS 3 Zrotation Yrotation Xrotation
							JOINT lwrist
							{
								OFFSET 0.265709 0.012698 -0.007375
								CHANNELS 3 Zrotation Yrotation Xrotation
								End Site
								{
									OFFSET 0.000000 0.000000 0.000000
								}
							}
						}
					}
				}
				JOINT rclavicle
				{
					OFFSET -0.082954 0.112472 -0.023707
					CHANNELS 3 Zrotation Yrotation Xrotation
					JOINT rshoulder
					{
						OFFSET -0.113228 0.046853 -0.008472
						CHANNELS 3 Zrotation Yrotation Xrotation
						JOINT relbow
						{
							OFFSET -0.260127 -0.014369 -0.031269
							CHANNELS 3 Zrotation Yrotation Xrotation
							JOINT rwrist
							{
								OFFSET -0.269108 0.006794 -0.006027
								CHANNELS 3 Zrotation Yrotation Xrotation
								End Site
								{
									OFFSET 0.000000 0.000000 0.000000
								}
							}
						}
					}
				}
			}
		}
	}
}
MOTION
Frames: 7
Frame Time: 0.033333
0.005467 0.873782 1.098503 -164.403511 -0.824737 92.627354 9.777726 3.051506 -47.396872 -12.660721 7.120274 44.569912 -14.118780 -3.534695 5.479705 0.000000 -0.000000 0.000000 -7.636986 -3.370912 -31.497385 -0.382247 -1.529828 27.945043 11.479593 0.672925 8.028902 0.000000 -0.000000 0.000000 0.603985 4.469981 45.674036 2.584407 -3.014705 0.107296 2.528019 -0.481446 5.238672 -4.626540 -1.402016 5.589408 6.741209 -5.594250 -0.495693 -25.965932 -0.398220 5.257113 -44.379091 1.207799 4.907422 18.084419 -53.651843 -2.062463 1.580080 -15.651028 -10.836083 25.046510 -0.039761 7.327178 45.029831 -6.016439 3.374296 -25.289055 52.082680 -12.636175 -4.479731 7.044474 -6.941288 
0.006333 0.924248 1.034066 -162.801043 -0.349305 91.465696 7.271423 2.550643 -42.603442 -11.797893 4.444111 37.022059 -12.998788 -1.433093 7.589060 0.000000 -0.000000 0.000000 -6.555400 -2.439075 -26.773412 0.224824 -1.628174 27.076127 9.331934 0.479198 3.823519 0.000000 -0.000000 0.000000 0.690547 3.757426 42.825152 2.394010 -2.820053 -0.423661 2.359908 -0.597293 6.332913 -4.269777 -1.412651 4.880271 6.484068 -5.810839 -0.200342 -24.953735 3.034988 5.228932 -46.232031 3.693301 4.609048 15.453163 -53.780446 1.831700 0.094681 -15.660202 -11.809285 23.885437 -3.110817 6.935635 46.048098 -8.913792 3.449444 -20.955863 53.265587 -7.196607 -2.841677 7.414251 -8.277279 
0.007123 0.962582 0.978630 -162.176253 0.630898 89.755803 6.312248 2.229156 -39.592147 -11.681148 0.483616 37.872428 -9.598900 -0.394062 4.325247 0.000000 -0.000000 0.000000 -4.649313 -0.632560 -24.803437 1.201427 1.172149 33.415635 2.615680 -1.009836 -11.829997 0.000000 -0.000000 0.000000 1.176492 3.098762 41.612858 2.242311 -2.210348 -1.122457 2.079284 -0.686437 7.785764 -3.535304 -0.661098 3.112424 5.519725 -6.518808 0.246397 -23.678718 4.543499 4.727720 -47.522271 5.429898 3.857390 12.852144 -53.130377 5.471222 0.454343 -14.928632 -14.249132 22.376610 -3.895326 6.178545 47.097206 -11.300907 2.945603 -19.100191 53.422147 -4.139648 -2.802987 7.497736 -9.590354 
0.008187 1.007126 0.909459 -163.727149 2.731624 87.893779 6.699168 2.433046 -37.850272 -11.714227 -2.752037 45.506874 0.185181 1.656579 -11.435727 0.000000 -0.000000 0.000000 -1.109198 2.388095 -28.589822 2.622960 2.235780 49.928293 -2.209506 -6.793955 -26.830174 0.000000 -0.000000 0.000000 1.224371 1.780141 41.648479 1.819262 0.252406 -1.035324 1.785560 -0.255982 8.333738 -2.662777 -0.362927 -0.235967 3.691639 -5.649707 -0.544987 -24.369159 4.047639 4.208484 -47.637032 6.414530 2.767679 11.557192 -49.691345 7.451638 1.007599 -13.676375 -14.258769 21.491902 -1.890021 5.090247 47.593266 -12.552403 2.632114 -21.615581 50.342095 -6.682717 -3.245545 7.227061 -9.215795 
0.008951 1.040434 0.863276 -165.716976 4.333157 86.990178 8.319385 0.907644 -39.619758 -9.987760 -1.512025 54.918210 4.468304 5.518754 -22.031218 0.000000 -0.000000 0.000000 0.364197 5.981534 -32.996034 3.119051 -0.835164 62.588939 -1.572496 -9.147542 -31.289320 0.000000 -0.000000 0.000000 -0.161125 1.139806 44.184831 1.923319 1.413972 0.446827 1.966917 0.536798 5.650642 -1.767156 0.803610 -3.257098 2.857997 -4.299536 -3.691404 -26.590670 0.439728 4.712892 -47.844981 5.975147 2.142099 14.463025 -43.925857 4.481863 0.349106 -12.399618 -10.479678 22.989539 3.196413 6.315403 46.557954 -8.844295 1.866857 -26.621994 43.434659 -12.173765 -6.200830 6.021647 -6.390216 
0.008055 1.067583 0.840421 -165.492621 4.570995 87.054796 9.121943 -2.154186 -42.188164 -9.853520 -1.563874 62.060721 3.635860 7.412079 -24.650717 0.000000 -0.000000 0.000000 0.353213 4.982221 -33.948317 3.423100 -1.489627 68.028831 -1.449196 -7.407531 -33.885850 0.000000 -0.000000 0.000000 -0.595049 1.731939 46.491551 2.198583 -0.036036 0.861455 2.334772 0.676987 4.039553 -1.393907 1.845434 -5.568863 3.740386 -4.542390 -6.450785 -27.176358 -4.000970 5.175467 -47.917005 4.849059 2.140994 15.517685 -42.478438 3.379410 1.162113 -11.061266 -9.517607 24.188058 7.819138 7.758525 45.987456 -4.728565 0.777508 -29.567890 40.360638 -14.477266 -12.951373 5.237420 -3.503545 
0.003867 1.095348 0.837898 -165.553966 5.410713 88.911264 10.129355 -2.743314 -42.981078 -10.003246 -2.154554 64.037354 3.595767 8.012311 -27.216960 0.000000 -0.000000 0.000000 0.152201 3.942278 -34.209872 5.031844 -2.293709 68.516479 -0.746636 -5.371310 -34.524068 0.000000 -0.000000 0.000000 0.441430 1.717519 46.928541 1.899440 0.137917 -0.074507 2.139948 0.741117 3.985171 -1.138388 1.302146 -7.637696 4.722805 -4.858847 -7.321530 -27.159440 -5.997767 4.874584 -46.400897 3.108695 3.431343 16.006909 -51.540995 3.193124 6.198724 -12.327818 -9.697711 23.999754 9.578811 7.500583 46.166027 -2.494418 1.180423 -31.741885 47.104063 -16.325362 -17.007296 7.246539 -2.368663 
